<mxfile host="app.diagrams.net" agent="Mozilla/5.0 (Macintosh; Intel Mac OS X 10_15_7) AppleWebKit/605.1.15 (KHTML, like Gecko) Version/18.3 Safari/605.1.15" version="26.0.9">
  <diagram name="Page-0" id="fkaJqMSIgnrqb4BessSn">
    <mxGraphModel dx="1242" dy="827" grid="1" gridSize="10" guides="1" tooltips="1" connect="1" arrows="1" fold="1" page="1" pageScale="1" pageWidth="827" pageHeight="1169" math="0" shadow="0">
      <root>
        <mxCell id="0" />
        <mxCell id="1" parent="0" />
        <mxCell id="wABjZFcqtZoC3o92DIDZ-1" style="vsdxID=1;fillColor=none;gradientColor=none;image;aspect=fixed;image=data:image/png,/9j/4AAQSkZJRgABAQAAAQABAAD/2wBDAAgGBgcGBQgHBwcJCQgKDBQNDAsLDBkSEw8UHRofHh0aHBwgJC4nICIsIxwcKDcpLDAxNDQ0Hyc5PTgyPC4zNDL/2wBDAQkJCQwLDBgNDRgyIRwhMjIyMjIyMjIyMjIyMjIyMjIyMjIyMjIyMjIyMjIyMjIyMjIyMjIyMjIyMjIyMjIyMjL/wAARCAMgAWADASIAAhEBAxEB/8QAHwAAAQUBAQEBAQEAAAAAAAAAAAECAwQFBgcICQoL/8QAtRAAAgEDAwIEAwUFBAQAAAF9AQIDAAQRBRIhMUEGE1FhByJxFDKBkaEII0KxwRVS0fAkM2JyggkKFhcYGRolJicoKSo0NTY3ODk6Q0RFRkdISUpTVFVWV1hZWmNkZWZnaGlqc3R1dnd4eXqDhIWGh4iJipKTlJWWl5iZmqKjpKWmp6ipqrKztLW2t7i5usLDxMXGx8jJytLT1NXW19jZ2uHi4+Tl5ufo6erx8vP09fb3+Pn6/8QAHwEAAwEBAQEBAQEBAQAAAAAAAAECAwQFBgcICQoL/8QAtREAAgECBAQDBAcFBAQAAQJ3AAECAxEEBSExBhJBUQdhcRMiMoEIFEKRobHBCSMzUvAVYnLRChYkNOEl8RcYGRomJygpKjU2Nzg5OkNERUZHSElKU1RVVldYWVpjZGVmZ2hpanN0dXZ3eHl6goOEhYaHiImKkpOUlZaXmJmaoqOkpaanqKmqsrO0tba3uLm6wsPExcbHyMnK0tPU1dbX2Nna4uPk5ebn6Onq8vP09fb3+Pn6/9oADAMBAAIRAxEAPwD3+iiigAooooAKKKKACiiigAooooAKKKKACiiigAoopr8xt16HoaADen95fzo3p/fX86onRrMuzFZMsdxHmHGevSp/sMX+1+dLUu0O5PvT++v50b0/vr+dQfYYv9r86PsMX+1+dGoWh3J96f31/OgOpOAw/OoPsMX+1+dKtnErBhuyPejULQ7kE2s2MEjxvKcoMnCkjpnrUaeINOknEKTMZCcAbD1xms28u1iuZIU1iCIgAKpiDEcD86rw3clzN5cOvW7vkjaLYZ6f5NRzM6FRjb+v8jpPtsP+1+VH22H/AGvyrHWG/BG7VI2GRkfZgMjvVzcf+eq/98//AFqOZk+yj/X/AAxc+2w/7X5U+O6jkcIucn1FUNx/56r/AN8//WqWByJgQ284PygcnimpMUqcUrmhRTYpFliSRfuuoYZ9DTqs5wooooAKKKKACiiigAooooAKKKKACiiigAooooAKKKKACiiigAooooAKKKKACiiigAooooAKKKKACmyHEbEAng8DvTqR/uN9KBrczn1K7V3UaVdMFOAQUw30+aj+0bvcR/ZVxx3yuD+taVFKz7l80f5TPhv7qRiH06aIAcFiDn8s1N9pm/59m/X/AAq1RRZ9xc0exV+0zf8APs36/wCFKtzKWANu+Ks0UWfcOaPY5qW88twp1WxjJRdqSRZxwPfn/wCvTTfqxAXWNPB6cRd/z9jVuebyLlomvrJRGvKvH8w4GMnNV2uJ84XUtMHIwDD2/OsjrWuv9fkW4BMkQE9zDI+T8yxbR+XNS7v+mkf/AHx/9as5r1ljw2qaYrnkExcYye2aJdQwFZdV0tVPdo85yflxz/8Arp3Dlf8AX/DGju/6aR/98f8A1qltj+/X50PXgLjt9KyBeSmMv/aulbMMwYQ8ADHPXtnn61fsbyGaZVjuraeQKW2w4yR7f/roT1Jmvdf9foQpqVzBbW6Ikajyl4kKg/dXnlx6npn7pqe11K4mLhxEuDgY2njIG44c8c+xrRtY2htIYmxuRFU49QKlrZnGtGcydQk89l/4SKz74TYMj9e1XrXV7WGEm71W2kJbAYfKOOorTNtAesMf/fIo+ywYx5MePTaKzSaN3Ug1a35ED6tp8bFXu4lI6hmxVwHIBHQ1GLeEdIk/75FSdKpX6mUuXoFFFFMkKKKKACiiigAooooAKKKKACiiigAooooAKKKKAGu2xC2MnsPU9hWfrNhdX+j3Vtb3GyeVNqk/KoP4AkVen/1Y/wB9f/QhUlJq+jNITcGprdM86/4QjWcHLWnTqLub/ChfBOsiQMTZlR1X7XNz09v85r0WisPq0D0f7YxPl/XzOB0Lwdrena3b3dxewmCMksqTMxwQR0K4711lxYX0rMYtUliyeMIpx+laVFaQpRgrI5cRjauImpzte1tip9mn/wCfhvzNH2af/n4b8zVuir5Uc/tJFT7NP/z8N+ZpRBKuS07EY6etWqR/uN9KLIOdsWiiimQFFFFABRRRQBxeusRq0/77aeCF8wjPA7eYP5VmTXavcsvnsiZAUGccHb0OJee/atfVru0TVpTJFIyngyrc4XoO27+lVVudNaRVRZWbOD/pTfK3TH3vTmsHuenD4UV7XUiVjBImkVAF2yL83boZecdeetSLLFckM0u1yGwiyYzk9sSY4P8APirza3CFUxR+b3OJFGB2PPrTP7fiMkaLBne2FPmrz+vrSHr2M4ybYJHjM3DsC3nnCnHT/W9wM4rW8NMz6izK26MJjO4tz1HO884Pp6elMfXoUkceXlEbaX8xcda0dK1GK71BY4VyoTcWDD06Y601uRUb5GdBRRRW55wUUUUAFFFFABRRRQAUUUUAFFFFABRRRQAUUUUAFFFFABRRRQAUUUUARzf6sf76/wDoQqSmuMgD3H86dQPoFFFFAgooooAKKKKACkf7jfSlpHBKMBjOOM0AhaKzpZdXAbyrW2J3fLulIGPXpUsb35jUyQxiTA3BWyAe+DSuX7PzX3lyiqu+8/55r+f/ANejfef881/P/wCvRcOTzRaoqrvvP+ea/n/9elV7vcMxpj60XDk80c1qVlJMXkigLyFVAzKQCNvPcY7VXSzu0LbbbG75f9Z29/m9akv4LiW7mWHad8QGDgfwjvimNa6i0rlIkjRuMBweCOf4c9axPQWxFJYXYwI7UjGMES4+venQ6K8kkhkV4QVwuZC/1zz/AJzSvY30yRI8MY2srsQyn2Ixtx0J/OoYNIvod6qFVTwCGXOOi8bewpDv5lv+xJlmWaO92yLjDeWT+m7HpWjolgbG4wZjJnpkEY4Puayv7MumuVlkO9cksrbcH2yBmtPQrFrW6LSDLknDZGSMc9OOv86pbkVH7j1OjooorY84KKKKACiiigAooooAKKKKACiiigAooooAKKKKACiiigAooooAKKKKAGOcPGPVsfoafUcn+sh/3/8A2U1JQN9AooooEFFFFABRRRQAUUUUAFFFFABRRRQAUUUUAcjqOoXVvchEuJUQR8KkW7+Ec/dNV5NX1CMlN8jEn5WAJ9/7lX77yIdSkjNoGJAAfazZxjAJwcD8e1UIjb5k8jTYg4+ZtwdMnjnlOe1YO56UUmr2Em1m++0BI5ZMttyNhAQnPGdnPbr+lC6rqCLI0k0zPFw8QjOODzyI+fw60ouUMQB01Muy8ESYOe+dnGMn/wCtTWaCR4lk0qJmwAThyFPHAOzGM0XHyrsNTWtSCBpDIA2cfKxweoH3PQVv6Vd3M9yUlAwhKltx5IHpgf5FUEu3iQRpakKvyqMSdP8Avir2m3Mk18qtCUABOcN1x7qKcdzOolyvQ3KKKK2OAKKKKACiiigAooooAKKKKACiiigAooooAKKKKACiiigAooooAKKKKAI5P9ZD/v8A/spqSo5P9ZD/AL//ALKakpDeyCiiimIKKKKACiiigAooooAKKKKACiiigAooooAy7qLRpp2+0rbPL1O7BPpSwtpCpHHC8IVh8iq2AR7CoZLplmdBfWK7YS2x1+ZcAfMeeg7/AFHNRi7c8LqOm+v3O3/fVYc50We12aXl2np+po8u09P1NQm6gBwbm3BHbIpUuIpTiOeFz1wuD/SnzC17sl8u09P1NPiS3EgKD5u3Wqc1zJFOiCAsjdZQBtX69/0xzRBcr5yB760IJ2kKu0kngAHPXJFNPUTvbc1KKyYbvUZ7eN4YUkOFD75RHjKKc8K2fvHpjoKfJNqcaljaoyquSVuM9ueNnPNbWMTTorCGsXRtRJ9mfzd+1o/nwB3OfK5/L09astNq4Py2UZGB1ugOe/8ABRYDUoqlbS3hKfaoViLPtCiQPxgnOdo9Ku0gCiiigApkkixKGbOCwXj1JwP1NPqvef6hf+usf/oa0AWKKKKACiiigAooooAKKKKACiiigAooooAjkGXi9n/9lNSU08uo+p/z+dOoGwooooEFFFFABRRRQAUh4BIpaRvun6UAUZV1Xf8AupbXbz95Dn271EE1vPM1kenSNvx71qUVPJ5lc3kV1FzsG9l3Y5x0zTsXHqKmoo5fMObyIcXHqKjka5UqqlN7HjI4HqT/AJ9KtEgAknAFRQguTMwwW4UHsvb8T1/TtRy+YcxS+zXbSlgLVojHgZjO7OB1OenWontNRyPKWwA77oz/AI/WtWP/AFSf7op1SoKw3N3MuK0vt6+atns5zsjOSPzq0Ldl6JGPoBVqinyIOdlbypPRPypRC+cHaARjI6/pViijkQudmO0DPcOv+gMiYUAxZYADGDzUkdtHt/ew2hb/AGYhj+VRTrm5dALkAtncrDA/WozlhnZeDqcAj0+vtWXOzXlRb+zW/wDzwtv+/Y/wo+zW/wDzwtv+/Y/wqmSTgBLz8CP8amjgyqN5k4xzhm/nRzsfKizHHHC26JIUbGMqgBx+VS+bJ/fWoaKOZi5UXoyWjBJBPqKdUcH+pWpK3Wxi9wqvef6hf+usf/oa1YqtfAm3ADFT5sfI7fOtMRZrIu52S9dBdXCZ4CJHkDpznH+c04aZILlZP3YwVy+Rk4IJb7mcnB/i7nrVa+Yw3ryLYpKykfvNp3Hj2U+lZ1dEaU1qKZpS5UX12pHGfJGPXOdv4fhUq3hhiUSS3EhJxu8s5/EAVC9wbcIkNt+7x0COMc+iqal+2KN/7qc7FLcRNzj09T7Vjc1sOTUVdSwM+AMkGNwfyxzWhaSia3Djdgkj5gQeD71QjuVkk2COVeM5aMgfma0bf/VfjWlNu5FRaEtFFFbGIUUUUAFFFFAEZP8ApCD/AGW/mKkqNv8Aj5T/AHG/mtSUhvoFFFFMQUUUmR6igBaKTI9RRkeooAWkb7p+lGR6igkFTz2oAWiiigAooooAim+dlhxkNy/+76fj0+malqKEEtJIf4mwOOijgf1P41LQBTNnP55db2UR7cCPC4HTnpn/APXUQ0+7Gf8AiaXB54yqcc59PTitGip5EVzsgWCQKAZ2JA6nvS+TJ/z1NTUUcqDmZD5Mn/PU0qxODkytUtFHKg5mcxeTH7dKonIAfb/rAMfh5g/lUa3QBAM+Bu3ZMw7df+WnT2rZkiuzcsQyCPccDyyTj65/pUfk32MebFnn/lg34fxVzuLubpqxkrdHJPnjrwfNGOn/AF15p4uFA/eSsw7hJwCMj18z8a0jBfED97Dnv+4b/wCKqaOOYIBJhn7lUKj8smlysd0ULe6tUZj5zBTwGluAwP0+Y1fBBAIOQehFP8tv7h/KjY/91vyp2YroWW3e4tUVJCvzZPJHHtiq/wDYwK48+46k5+0v3/GtKEERKCMGn1tyJrUx52noZX9jjOfPuM5/5+H/AMak+y/ZbUJvdh5sfLuWP317mtGoLsEwqACT5sfQZ/jFVGCTugc21Ynqlc6cbiYyC6njyMbUIA/lV2im0nuSm1sZp0knP+nXXII6j8+lOGmFZhJ9snIBzsJG08fStCip9nErnkV/so/v/pU0aeWu3OadRTUUtiXJvcKKKKoQUUUUAFFFFAEbf8fKf7jfzWpKjb/j5T/cb+a1JSG9kFFFFMQ2QkRsR1ANV10+BZ5Jl375PvEuSPyP0qxL/qn/AN006paTepSbS0IfsyerUfZk9WqaijlQczIfsyerUogVckFs49alpG+6fpRyoOZi0UUVRIUyZzFBJIBkqpYD1wKfUc7BYJGb7qqScelADo0WKNI1GFUBR9BTqKKACiqT6iEmeMW07BU3Bwnyt7D35psmp+XGr/ZLltxxhUyR9RU88SuRl+is46uAP+PK77f8s6X+1htVvsd18xxjyzkfWlzxDkkaFFUrfURcE/6NPH8ob94m3r2+tWFn3MBtIpqaYcrOeu5RFfuftGcu2UEpGOe4MgH6U1b2eJf9ZGBkqdwU8jnGTLU17N/pEgRuVds4bBHT/aFV/NKoD5jfc5+c88/79cz3OhbFi3vLqUhgiyoPvCNU/LPmH/Iq19ol3Y+xzYzjO5Pz+9WcZHVj87ANhuZCfw+9U8Buc+ZEu5Ce7ZyPbLcUAXVldnCm3kUYzuJXA9uDUtQpLKzANbOo9Syn+tTUxFyD/UrUlRwf6lakrpjsjnluFFFFMQUUUUAFFFFABRRRQAUUUUAFFFFABRRRQAwj9+h9Fb+Yp9NzmQj0A/z+lOoGwooooENl/wBU/wDumnU2X/VP/umnUuo+gUUUUxBSN90/SlpG+6fpQAtFUJdXtYc7xNwSOIWPT6D3oGsWpbAE+c4/1D+uPSp549yuSXYv0jKHUqwyCMEVF9pT0aj7Sno1HMg5WLA7FNkhzKnDds+/4/56VLVaSVHwy7ldejY/Q+opEvOQskTgk43KNwP5cijmQcrLEf8Aqk/3RTqbH/qk/wB0U6mthPcKKKKYgooooAyJPMe7lRLgjBJ2+X0/Ggxz4/4+Bn/cFPlgtriSQSAvhj95MY9cetTYQdz+VczWp0J6FYxTls/acD02CnRpKrZebeuOm0Cp8L/eP5UYX+8fypWHcbRTsL/eP5UYX+8fyp2FctQf6lakpkOPKXByKfXRHZGD3CiiimIKKKKACiiigAooooAKKKKACiiigAooooAizieQnoEU/qahv5LpLGZ7dP3oXKgcnP0xUjf69/on/oRqeoknJNXsXezTscE2reNA2E0/Iz1II/8AadIdW8a/aIQLDERx5jbMleTnHyc9q76iuX6pP/n4/vf+Z0/Wo/yL8P8AI5exvdclu0S5jlEJDbt0O0dD3xXUU2X/AFT/AO6adW1Ck6aacm/UxrVFUaail6BRRRW5iFFFFABgelGB6UUUAGB6UYHpRRQAYHpRgelFFADY/wDVJ/uinVS/tOziYwvcIskce91J5CgDJpp1rTVODeQg+m6pUo23KcXfYv0VWhv7W4BMMyuAcHbzipfPj9f0o5l3FyvsSUVH58fr+lAnjJxux9afMu4crMO/hDTvhCcvzhCc/wDjpqp5TyN86MVGWz5Z+nTZ14q7fW8s0z+WImQsTuZlz79UNV/sEpT/AFUCkDAwU/8Ajdcr3OlbC/ZYGz+8l7A5tuc9j92nR2MMrHbJLw27DQ4H4ZFNOnzk/wCrhPrlk6+v+q605bGZZRII4mYMG5ZR9eRHmkBoouyNVznAxmnU2MuUBkVVfuFbIH44FOqhFyD/AFK1JUcH+pWpK6Y7I55bhRRRTEFFFFABRRRQAUUUUAFFFFABRRRQAUUUUAQkZuHH+yn8zU1Qk/6X+C/+zVNSRUgooopkjZf9U/8AumnU2X/VP/umnUuo+gUUUUxBRRRQAUUUUAFFFFABRRRQA0opOSoJ+lHlp/cX8qdRSsguN8tP7i/lR5af3F/KnUUWQ7sb5af3F/KlCKDkKAfpS0UWQrnNXiL9tnIhViXzkID+P3Dz171A0EQYhYkK4B4jXkf9+/Y8Vengha7nfbMW3HdsUHn+dENlC8S/LIAGJxIoyf06f41ytanUthttJDaIYx5hLYO0RDAz/uqKupKjgFW69jwfyqsdOhO35myvQ4XI/SlGnxKwYFgR0wAMfpRqBboqJISr7jNI3sSMfyqWmIuQf6lakqOD/UrUldMdkc8twooopiCiiigAooooAKKKKACiiigAooooAKKKKAImH+kA/Qfo1S1FnMn0fH/jtS0kNhRRRTENl/1T/wC6arvqVjHIY3u4VcHBUuM561aqFrS3dy7QRlj1YqM1Lv0GrdQW7t3dkSZGZfvAHJH1/I07zo/71ILeFWLLEoJ6kDrTvKj/ALoo94fuiedH/eoMyYOGGcd6Xyo/7oo8tQDtUZxR7we6ZE1/cCZ1j1HTgFPIcHIGcc8/Wmm/uxGX/tHTgqn5mKnA/Hd6ZpoF3LPdD7JbKQw8tniPzDJzk9+P509YLvy9jQ2WDnIERwfT+tYXZtZEsOpBUY3Go2bEHqhCgDHfJPvUp1GFRlr23A46uO/Sqwt7nODBZ7O48o0pguNylYbT7oyfKOc98e3SnzMXKi7Hc+ageOeN0PRl5Bp6SOXAMikZ9KzgupIpCJZjg4ARsZ7VZg+1fav3ixeVxjaDuzx/9empO4nFGjRRRW5iFFFFABRRRQAwxoTkqKPKj/uin0UrId2M8qP+6KPKj/uin0UWQXYzyo/7oo8qP+6KfRRZBdiABRgDApaKKYgooooAKKKKACiiigAooooAKKKKACiiigAooooAiTmWQf7ef/HRUtQJ/wAfMn1P8lqekipBRRRTJCignAyaqyX8Ub7THOTu25WJiO3P0561MpKO40m9i1RVH+1oCCRFdHGOPszjv7ikOrQiHzfJuiMkYFu+7g46YzU+1h3DlZfoqrb38dyrFY5l2nH7yMpn6Z61N5qtxg0/aRezCzMzUdb+xDKRLMuGyVY8EduAeakS+1AuA+noq+onB/pTrrSluZFbzNmM/dUHOevWq40LEnmfacORyRGOTnOf0H5VztVrl+6SDUNS2ZOmx7uOPtA/HtUiXt+zsHso1UKSG87OT2HSqw8PooIE+ARjiNR/Sj/hHlwQbgkEY/1YGPy/Gi1f+rB7pK2oakM7dNjbnj/SAM/pUkF5fSXEaS2KRxt95xNu28HtjnnH51HBokMW/eVl3AgZQDAPXp68Vct7OO24iUKuckDuacVWvqL3SzRVea9gg5kLAZxkKT2J7fSmQ6nbT7fLZzu5GUI/nW/tI9ybMt0VH5y+9HnL70e0j3CzJKKj85felWRWOBmhTi+oWY+iiirEFFFFABRRRQAUUUUAFFFFABRRRQAUUUUAFFFFABRRRQAUUUUAFFFFAECf8fMn1P8AJanqBeJ5D7n+S0XUMk1rJGj4dhgdhWcpOMW0rtFtXaJ6K5A+HNd7azjk/wAA/wAKlt9A1mKeV5tT85GJ2xkbQgzkYIGTxxzXmvMMTb+A/v8A+Aaeyh/MdQ/+rb6GnViW2mXkE6ySTAooOQHJ7Vt114SvUrJyqQcH2ZE4qOidwooorrMwpD0NLR0GTQBV8+534NqcbiMhx0zwaEnuWfDWpQf3iwNPa8hVwjPhj0GOtRLqtmxYCYZU4OQRisW1f4hpaFjfJ/co3yf3KBOjAEE4PPSl81fei6/mH8hN8n9ygO5IylL5q+9AlUnFCa/mD5GZeXAQAC/8hvlH+r3dQeP0/SoJblkPOrhQegEIOOP/AK2anvLgxSOn2+OLBXAMWcDGPx5I/KoYr7fMFGoxtn5dv2cj5skdfrj8q5pPW39fmVHYdDeKQjnUy6limDDjJx9KZHM85EUerN5h4B+zj69x6VZjivVxvvY345/cYz+tPdLptu26RcE5xF1H5/Wj+v61GTRB0jCyTGRh1bbjP4VLGfnHzZ/CqkCXSSEzXayKc4URbcc8c59KtI2GGW4+lXB6r+v1EyeiiiuwzCiiigAooooAKKKKACiiigAooooAKKKKACiiigAooooAKKKKACiiigCIDLv9Qf8AP5VLUEbZkP1I/VqnqY6lS0dgoooqiRr8o30qvJqVnE5V50BDbMe/Bx+o/OrVJtX0H5VLT6AVJNUsos77hFwSOfbrTW1ewX71yg5xzV3av90flRtX+6PyqbVO6HoVoNRtLliIZlcgBjj0PQ1P5ikEA807av8AdH5UhACkgAcdcUe/1YaFdppQ+BaMRn7wIxUDXl4JWUaW7KM4YSJzzx3pDdkzEDULXG5ht288duvbvTXuJmkYx6lbKgIG0x5I7nnPpWLnrv8AkVHVEqXd0Ww+mSKOeQ6H+tWEkdkBaAoT/C2Mj8qz0uJ3kVF1W0dmyQqxdR/317GrsbSqgEkys3chcD8qSn5/kOxLub/nn+lAZsj93+lN3t/fH5UB2z/rB+VUprv+QrEM1zcpI4SweRQMqwdRuPpyaR7i5VyFsCyjowcc0+SO9eQtFdRKhHAMRJH45pgg1HnN7Ef+2P8A9em+a/X8A0LAZiBmLHtil3N/zz/SkRJwgDyKzdyBgflTtsv94Ue95/gGgm5v+ef6Ub2GT5fb0pdsv94UBZM8sKdpef4C0MyW9CXE4OpRKF/g8v7nTvmlXUYwhd9QgKleCq4x79TWrtHcDP0o2r/dH5Ueyl3/AD/zDmRkrcyMsko1KIxLwcRfdP51C11LsLjWoQq/e/cg9OT3rc2r/dH5UbV/uj8qXspd/wAx8yM46paAkG8jyDjrVoSEgESZBqfav90flRtX+6Pyp+zl3/MV0U55ZY3Qx5YsuCTkqPmUZIz6MT+HNRJd3hkAKLjGfuLz7cSE5P0rQCKG3BRuxjOOcU6t1orEgOnIxRRRQAUUUUAFFFFABRRRQAUUUUAFFFFABRRRQBXh++f94/zarFQQj5if9pv/AEI/41PUxKnuFFFFUSFFI7BEZj0UZNVPtNz5rr9kYID8rE5z+VBLkluXKKq/aLj/AJ9z+tH2i4/59z+tAvaItUhIVST0AzVb7Rcf8+5/WkM0zI4aFlG08gcigPaIhbVbVGIMU3UjiE9R+FN/te0BAEE/Jx/qGH9Kq3c5RSxv7yMZIykW4/lg1Al4Mlv7SvSq8kGDHt6e+alJNXMZ1ZKVkzRfWLRGwYJyckcQE9DjsKE1e0eQIIZwTwMwkD88VRgudxJ/tG7cKoJDQ4z+g/Kohfxln/4md982SAbcjaPb5afKifbS7/195t/bIP8AnmfyFKl1C7hQhBJwOBWRZ3QkmYDULyXaMESQ7R25zgVoQyZmQedIeehH/wBeiyLjVk+pfjbfEjYxkA49KdWTPY3M4ieORSuxfv7ffjlSMcj34qA6RfbgRPHgEcYj55/65VVjoN2iqOnWs9qH85lbIH3cerHOAoHQgdOwq9SAKKKKACiiigAooooAKKKKACiiigAooooAKKKKACiiigAooooAKKKKACiiigAooooAr25yzezv/OrFVoSE8xm4AdyfzqDWLq7tdGubi0h3XCJlEI3HP0HWph1CtNQTk+mpoUV5SfGfjYf8wZj9IDTZPGvjpR8mhlzkdYiBVHlrNqL6P8P8z1S4/wCPaX/cP8qkrzzRPEvie/vIIdRsPJikRvNHkMAh2E43fWvQ6DqwuKhiE5QTVtNQooooOoKRgWRgDgkYBxS01wDGwPTBoBmFdHU9+IpEOWbJDhcDt1zUB/tfAAlHIwSZl49/u1syaRYSsWe2Rie5FEWkWMD74rdUbGMjjj/IFBzOlNu/6/8AAMmOLUmXMl+yNuJ2go3H5VKYb3cMag2B2wnNa/2OH+6fzo+xw/3T+dAexl3/ABMoR3m7P20kYAx8vXjn/PrUlol0typluvMXONvyitH7HD/dP50q2sKsGCnI5HNA1SkmSqqooVQFUDAAGABS1lXWqy291JEsKlUI+Y59vb3pg1lgMuijnjCsf6e1BbrQTsbFFZP9sjBO3ocf6tqP7Yw2Mc5x/q2oD20DWorJ/tkDHHX/AKZtVm3vHmlVSFwfQUDVWLdkXaKKKDQKKKKACiiigAooooAKKKKACiiigAooooAKKKKACiiigAooooAKKKKAKyjcWXPV1Yfof6VZqpFz5DeuD/46at1MNhy+JhRRRVCI7j/j2l/3D/KpKbKpeJ0HVlIrFmvtUS6nRYT5atiPEWfTvnnv2FBnOag7s3KKxFn1goCWhBPYwnj9acs+rbxuaErnnERzjP19KCfbLszZpH+430rJ8/VMdY/++DT4JL+SZ1n8poCp42EHpzn9aB+1T0sWJNVsYmKvcopBxyffH8xTP7a07yTN9rj8oHBfPH5019EtJGZmM3zZyBKwHP8AKhtFtGCAmbCAgYkI4Pr6/jQK9XyHHWtOUMWu4wF+9k9KQ65pgIBvYuTgfNSf2Jacczcf9NTTBoFkAQDcc4/5bt2/GgL1vIsxanZzkiKdXK4J284z/wDqNSrdQswUNyeBwarxaTbw7thl+brlyf5/WpVsogwOWOOxxigadTrYxtQtHl1CVwsZG4dcen+6f51VFhLtGdmcc8r/APEU7U7YNqUoEI28Y/dg9h/0zP8AOoxa2zKBtkU+1qOPzSg45fEywdPjIxuxkc4RP8KQ6dGw5kJPrsT3/wBn3qAWdrncBKvBP/HqOnp9ykNnaDOFlH0tBx/45QIsDTYhkB+DnjYn+FaNgixzxqoAAz0GO1Z1tDGsv7p5lJ5bMAQN9TtH8+5rUtP+PpPx/lQXT+JGnRRRQd4UUUUAFFFFABRRRQAUUUUAFFFFABRRRQAUUUUAFFFFABRRRQAUUUUAVLXDRwZ6hcj8Mj+tW6p2fSL/AHG/9lq5Uw+EcvjYUUUVQgooooAKKKKACkf7jfSlpH+430oBi0U3zE/vr+dHmJ/fX86BXQ6im+Yn99fzo8xP76/nQF0OopvmJ/fX86A6E4DqT9aAujJubd2vZH+0lVJBCAjjj3FRtAZGO25244IVl/qKq6mjf2lKRCWJIwwTPYc52n0xUIa5UBVWQKADwP6baDhk1zPQ0Ut2QnM5fP8AeYcfkKk8s/3k/wC+qyfNuc5/f9uNp/8AiadGLuQ7Q0i4Ocscf+y0C5l2NTyz/eT/AL6qa1TFyh3KevQ+1Z0KXCykyMCnb5s/0FX7T/j6T8f5UFwfvI06KKKDtCiiigAooooAKKKKACiiigAooooAKKKKACiiigAooooAKKKKACiiigCpY4KAY5VR+v8A+qrdVbMDAx3jT+tWqmHwjk7ybCiiiqEFFFFABRRRQAUhAYEEAg8EGlooAoyaPZSsS8WSTnr75/mTUY0LT1hMIhIjJyV3Gr5miBwZE/76FHnRf89U/wC+hTsyPZw7GeugaahJFuOc9ST1oHh/TQ+8QfNnOdxrQ86L/nqn/fQo86L/AJ6p/wB9CizF7OHYoJoWnxszJBgsCD8x5BqSDSbO2kEkUW1h7k981b86L/nqn/fQoEsZOBIhPoGFFmP2cOxz+oCcahII1k8vI+706D3qswu8n/Wfh/8Arrek06G4mNwJpfnw3yyHaeKR9KidsmWYcYwr4pHNKjJtsxFjuXfaXdcDGSSAeaeba63DE/Hf5jWzHpcUZOJZjn+85P8AOpPsEf8AeagPYSMaCGZH3SylhjpkmtC0/wCPpPx/lVn7BH/eanRWiRSBwzEj1oKjSkmixRRRQdQUUUUAFFFFABRRRQAUUUUAFFFFABRRRQAUUUUAFFFFABRRRQAUjnajH0GaWo5/+PeX/cP8qBrVkdocxkY+6Qv6Z/rViq9oCEfP97+gqxUw+FC6sKKKKoAqlNq2n24JmvIYwDjLNgZ9P1H51ZuP+PaX/cP8qa9pbyMWeCNiTkkqOtUrdQKkOv6TcBzDqNtIEBLFJAdoHUnHSmr4i0Z5hCuqWhlJICCUFjgZPH0q0NPs1zi1hGeDhBQNPslORawg+oQVX7vzFqV/7f0gCMnUrbEmNh8wfNnpj16j86kOqWLzPbLdxfaAhYx78MBxzjr3H5ipTYWhxm2iOOnyDig2tvEXlSBBJtI3KvzEUe50uGpyV7p+mtdyy/aZUcsQxS1D55J67ST3/wAmq0NpooYyedOygHANhjBJ6/dz2rdli0FrpppLXdMW5byyTkH/ABpf7a0XBOZ8A4P7p/XHpXSptrRMhxs9TDk0/SGdohNMsmDkrYg9uv3SPT8qvj+xkX7MI2wCDgWzEZ4IOcfStOC/0u5cpEJSwzkFGHT61Y3Wf9x6HN9mKxiY0bzR+6ffG2QfszcEnt+I7VPpTaUdRAtEdZmJZj9nZAcEA8nj0rU3Wf8AcenRtaCRSqPuzx3qXPTqOw03VxEY08lzH5YIMalufm77T6Lx2z3qP7fd7sC1kxgnOG69h/q6SS9v4UVbe0jlUKNpeYKTx34601tS1UKxXT4Cw6A3GAf0rFU2XzIP7Qvzn/Q3X5SQcO3ODgY8sZ5x3FbNZ0V7dtEDLDEj91V9wH48U/7XP/cj/P8A+vSdNhcvUVR+1z/3I/z/APr0+K4nkfZiNcg89ccfWk6bQXLdFZsWroYEd4ZSxjDNtTj7qk8E5/iFR/8ACQ2gcoYrrcMceSe9RYZrUVlR+ILWSREWG63OQFzCQDk4HJ960oZRNDHKoIV1DAHryKLAPooooAKKKKACiiigAooooAKKKKACiiigAooooAKKKKACo7j/AI9pf9w/yqSobo4s5z6Rt/Kk9io7oS0Ja1Qnrz/Op6ithtgA9yf1NS0o/CiQoooqgI7j/j2l/wBw/wAqkqO4/wCPaX/cP8qkp9ACiiikAUUUUAJsX+6PypNi/wB0flTqKLgN2L/dH5UbF/uj8qdRRcBuxf7o/KlCqDkKPypaKLgcpqaWf9qyI+nq5BUbhuAxgegx/wDqpkZ04wlGtdiM28KBJyemegwak1qIPqJYxFgCORGW/D7h/nWZ9mJyRE2AvH7o8YPp5XXrXfFXijF7mtBNYxF2hjI3AFiFfn/OalN/bjOUfj/pm/8AhWN9n3Mu6N/LUgZ8lsgfTy/StWK0eGNY0uXCjPARR/Sm0gLEVzDMWCLkr1yGH86tWxDXCgDaSDhh1HHvVKOKRJCzXDyKeisFAH5Crln/AMfSfj/Ks5r3WNbl0WFqEVWgjfaoUM6AnAGBzR9hs/8An1g/79irFFcZqV/sNn/z6wf9+xU6qFUKoAUDAA6ClooAKKKKACiiigAooooAKKKKACiiigAooooAKKKKACiiigAqC94sLj/rk38jU9QX3Nhcg/8APJv5GpnpFlQ+JDrbP2WLPXYP5VLUSkxQRrjL4CgZxk4qlrVrfXei3VvaTKly6YRlymD9c8VpCCbSbsZ3sjSorzb/AIRjxPgDdLnuf7Sei48M+KJLZI4TJFKCN0v9pO27jnjp15r0PqNL/n8vw/zMvay/lPRbj/j2l/3D/KpK850jw54psdTjub68ZrZFcupuWfI2nt35rtZ9atbdwjrOSW2/LCzc++Bx171z4jDxptRhJS9C4Scldqxo0Vkt4jsEkZGW6ypIP+jORke+Mf40HxFYhtuy6z/17P8A4Vh7KfYvmRrUVkf8JHYfJ8t185AH+jv1PrxxV5L2J22hX/75z/Kh05LoF0WaKzW1u0RnBE/yZziFu3X601Nes5ITKq3GwNt5gYHP0IzR7OfYOZGpRVCLV7aYtsWb5eu6Mr/Opf7Qi/uv+Q/xo9nLsF0WqKq/2hF/df8AIf40LfRMwG1+fajkl2C6Oc1G6uv7QcqZVjYK2I8sADjP/LNufx/xqs818sUbb5+c8gHJ+o8nI/IVLfQu99nyA6FVwTGDglQP7h/nUUMflAKLCNyQfmeLB6dOExXakrGQrSagAymSYMqjJA3DnHIxFg9e35dcM86+MjJ5twMLn7vtn/nj/wDX9s8VMCpk8xdNi3dQxiYNn/vn0xT4oUncJ/Z1ssSk/fjIPPcArTAsW93wscqy+bnaT5TEZ477QPx4rSs/+PpPx/lVWOKOFQsUaIoGAFXAAq1Z/wDH0n4/yrOfwsa3NWiiiuI1CiiigAooooAKKKKACiiigAooooAKKKKACiiigAorz74za3qWgeAWvdKvJLS5+1Rp5sfXac5H6V4YnxA8QMMt8Qb9flBP+jseT1A+n+fQ6RpOSuK59aUV8qSeMfE8czRt4+1H5QBv+yuVLHcSAe+AFOe+72qWXxX4nikZX+Id2AiBy/2aRlIJ4wQpHT8OnvivYvuFz6mqtqP/ACDrgeqEfnXyrd+PfEsVlNcWvxAubh49uIShRmyccZHbr/nnqvg7408R+IfF11Y6xrNxd2v2Fn2TMCA3mRgH9T+dTOi+RsLn0KPmnY9kG38Tyf6fnUlRwg+WCwIZvmIPUZ7fh0/CpKhjCiiikBHcf8e0v+4f5U/A9BTLj/j2l/3D/KpKfQBNo9BRtHoKWikAm0egowB0ApaKAEwPQUbR6ClooATaPQUbR6ClooATaPQUYHoKWigDnZYVM29r0IMJ8m/GOO/1qIpbbQP7UAPPPnjJ/wA4pb2Wwt9SnR0YltoZSV2jgYwD9aRG0xiN0UKH+ENsyfpXcr2uZDkFt5wP9pK5A3bPOGMc84Hb/CpvPttgf7Xb7GzhvMGDjrUK/wBmKwZRbgn5QQV/L9aMaXtCbbfaCQB8uM96AJzLbqAWuoADkjMg5qxYyQyXQ8ueKQr1COCRxVJm06QBW8lhnIBKnnnn+dW9Pt7aG6TyYVjOCPlUDt7VMvhY1ubFFFFcZoFFFFABRRRQAUUUUAFFFFABRRRQAUUUUAFFFFAHl3x+/wCSZt/1+xf+zV8sKxVgw6g5r7J+JXhG68beEm0izuYbeYzpKHmztwucjjnvXjf/AAzj4i/6DOl/+RP/AImumlOKjZslo83vvF+rajcGa6eJmLrIQEwCygAHj0AFLP4x1qfTTYNOgtmgW2KiMcovQfr1+lewR/BrxxFHAsev6MphiMKt5BJaPCja2U+YAKMZ9T61Xvvgf4z1KFobrX9IaNn3lViKjPrwg/zn1q/aQFZnhUbKsqM6b0BBZc43D0zXqnwJ8uf4i3e2IRxNYtiNSTgebFxk81of8M4+Iv8AoM6X/wCRP/ia6z4f/CbVvAes3usX2o2U8f2J4lSDdu3FlbPIHHymlUqRcHZjSu7Hs9FFFchQUUUUAR3H/HtL/uH+VSUyZS0EigZJUgD8Kyb7xBFYyIjQMxeTy1y6rk5A/ix69quMXLRCNmisZtcnHmY0udtpwMOnzdeRz7d/WkGuz7XJ0m5BUZA3p83sOf50/ZT7C5kbVFZLazKGIGnzMOOQ6f1IqW21R57gxPZTRLtzvJDAn0wCTQ6Ul0HzI0aKyZfENpFIyNBeEqcErbOR19hT21y2VUbyrkhiQMQsentS9nPsHMjTorNTW7Z2UBLgEjI3QsP5imf2/a7SfJu8Yz/qG/wo9nPsHMjVoqmuoxMoIR8EZ5GKct9GzAbX59s0ckuwXRz2qJHJqMzrewJn7ys3QYAz94f5xVYxpuz9vtt5XONxA4wc/e9Ku3VyI5SpvbWLaikrKvI46n5hxnFRpdr5O5r+zbOVV1GF3en3jn867VokZMpm3XcVF/bg56B2zn/vqrarYoUaS5QtgHBl+U++CalQXbpuW5tmDDKsIDj6/f5FWVB2APgtjkgcZobAije0kYrE0DMDyFIJB5/+vV6z/wCPpPx/lVfAznFWLP8A4+k/H+VRP4WNbmrRRRXEahRRRQAUUUUAFFFFABRRRQAUUUUAFFFFABRRRQAUUUUAFFFFABVe/UPp9yp6GJh+lWKhuwWspwOpjYfpSlomVH4kSRuJI1cdGANOqK2GLWEH+4v8qlpskKKKKACmGGJjkxoT7qKfRRcBnkxf88k/75FHkxf88k/75FPop3YDPJi/55J/3yKVYo1OVRQfUCnUUXYBRRRSAKKKKACiiigDEmWaLcV0+eRwoHyMo3YHvUTSzg4XSL1ucZ3oBjPXrRf63fW+oTW8UELRqQFYrIecDrhSO/rUltq13IhM0cSHcQuM8j8ce9dKlK2xHKRiS42AtpF5k/wh0JH15pRJcbWJ0q8GDgDemT79as/2nN/0z/Kj+05v9j8qOaXYOUqGW6Ck/wBj3ZPp5iVoWiETIxglTj+I9OPpUX9pTHsn5VNbXss1wqMFwc9B7UpSlbYaiaFFFFc5QUUUUAFFFFABRRRQAUUUUAFFFFABRRRQAUUUUAFFFFABRRRQAVHP/wAe8v8AuH+VSVHcf8e0v+4f5VM/hY1uR2LFrNCTk5P8zViq9lgWyoP4ev4jP9asVQS3CiiigQUUUUAFFFFABRRTXJVGYAEgEgE4zQA6istn1rzhtitvKycncc4yMY/DP6VEX8Q54isse7n0/wAapR8wehs0VlW7a0S32mO2AwMeW2ee/X8Kn3ah/cT9KOXzAvUVR3ah/cT9KcjX28bkTHfkUcvmBhXFhazOry/ZgQqkbtuenfNR/wBhwlcNIjDOTlYufX+Hv/Sq97bGW5DyRRSDCBlCqxAwOuUJxx/+qpI7m4SNT5BYk87i/H/jtdGoiX+xIc/fTj7vyxfLznI+WnR6NbIpV1hlU4wHWPA/ICoRfTgjfbEZ/uq54/75q6j71yFYD/aGKNQHRWccIIiSGMHqEKirdlGVu0O5e/Rge1VKsWP/AB+R/j/I1MtmBs0UUVzjCiiigAooooAKKKKACiiigAooooAKKKKACiiigAooooAKKKKACmSjMLj1U0+mv9xvpSlsxrchtefOwOPMwPwAH9KsVUs2JZh225/8eardPoElZsKKKKBBRRRQAUUUUAFNf/Vt9DTqa/8Aq2+hoAdRRRQAUUUUAFFFFAHJ3V/PFP5UcUBUKgDOrk5wOuBjvS/bLly3lxWgXcQm9iC3+eaXUtMlm1KVkjURjbtyOnHbg1VOkTkEELtI547/AJV1K1hGjFcEpmVbfdn+AnGO1P8AtMfpF+f/ANeqEWnXEPKxREk91OMZz6VZislWMA20YOMELHgUaATC4jY4URE+g/8A11asnBu0GxR15A9qpraqhBSAKQMAhMYFW7JGF2hKkDnt7VMrWA16KKK5xhRRRQAUUUUAFFFFABRRRQAUUUUAFFFFABRRRQAUUUUAFFFFABQeRRRQBVtQE2/3nTP4A5/9mq1VK1yZUPYIR+iVdpR1imVP4mFFFFMkRmCIzscKoyTWdLqzRTeX9huG+bbuA47c/Tmrtz/x6Tf7jfyqWmrAZJ1txMI/7OuiCcb8DaOcZ+nerH9oN/z7v+f/ANar1FO67AUf7Qb/AJ93/P8A+tTlvGkDL5Dj5T3q5TX/ANW30NF12AzbjV3gbA0+5k6/cAOMf/rqSLU2kjDm0lTP8LcEVoUUJrsBR/tBv+fd/wA//rUf2g3/AD7v+f8A9ar1FF12Ao/2g3/Pu/5//WpyXzO4X7O/Jx1q5RRddgON1mWU6rMPPuI14GxJcYGBnp071EsuVDNdXn32I2P/APXORgjpWnqFzZRalKJI3MmQC2RgcD1+tMSewcZKqvJA3MvPrW6eiEVoL+OGEDzbiQcndIwJ4/GpRqkZXOZP8/jU4ew4xs56fMvNND6d1Bj+oZaYEP8AasfH+s5+n+NaWnzrJeIqyhsZyA2e1Uy+m8ZMfPTLLzVzTvsxu1aFRnkZUj09qmWwG1RRRXOMKKKKACiiigAooooAKKKKACiiigAooooAKKKKACiiigAooooAKKKKAKUGV8oergH/AL91dqqCo2H+6VP4nK1aqYfCipbhRRRVEkVz/wAek3+438qlqK5/49Jv9xv5VLT6AFFFFIApko3RODnBUjg4p9Nf/Vt9DQgM240SK4OTc3KcEfu5SvWpItJjijCCaVgO7tuP5mtCimpNKyApf2an/PR6P7NT/no9XaKfOwKX9mp/z0elXTkVg3mPx74q5RRzMDmL/TbiTVJJEU7BjaX3Nnj680hsrs8GKHHvCev51Hq8zC685JJF35baXxwAO24VQ+0uWyZ/mJICiQ//ABfvXQr2EaK2V6oP7q3B68Qn/Gl+xXYxiGDg5/1JHHb8ayhcS5wtwSCBj96MnI/3/WpYjPOm5HldefmSTI7ej/5zT1A1IrObb++gQsOmyMjH51dsYGjukxEVXn+HA6Vhxw3TMFMkyjOcsTjHv83WtuxP+mR/j/I1MtmBs0UUVzDCiiigAooooAKKKKACiiigAooooAKKKKACiiigAooooAKKKKACiiigCrCocurdCgHX3aqWv22qXGg3kGnT7bto8RMvyNn/AHs8H3rQgXDE+ox+RP8AjU9FKTik+xU9WeTL4f8AHO3521ct/s62APyOf50+PQPGykFv7XfsQdbGD78Y9q9Wort+vT/lX4/5mfKeX6Tonja315bm+uLtdOHmFo5r/wA4BSrYBG75u3b3r1Corn/j0m/3G/lUtY1qzqtNpL0GlYKKKKwGFNcExsFxkg4zTqKAMua41hSfKsrdxz96Uj6dqia714fd0y2PHe4I5/Ktmiq5vIVjLNxrGflsrcj3lI/pQbnWecWNv7fvT/hWpRRzeQzLFxrHeyt/+/p/wqSCbU2cCa1gRfVZCf6VoUUc3kBy11e2aOIJkkztUEiVV6gevNOS8sDlmOzHHzTrVW9Vk1hoAzOV27lRsEjAGceYP/Qai82GWZ40t7p3H3lS5GV/DzOK6LKwjR+2aeP+Wicf9Nl/wpRe2GQolTJ5AEy/4VUSENJsMF2i/wB9p+OPo5NTGziK43TD6TP/AI0WQE322xIyJVx6+cv+FWdOuLWe6XyHDkZ5WQMBwfQVQNnEwwTL/wB/n/xq5pkKQ3aBN3OclmLHp6mpklZgbtFFFc4wooooAKKKKACiiigAooooAKKKKACiiigAooooAKKKKACiiigAooooAgjP71R7Sf8AoQqeoEGJl+kn/oQqephsVIKKKKokiuf+PSb/AHG/lUtRXP8Ax6Tf7jfypxljBwZFBHvT6APopnnRf89E/wC+hR50X/PRP++hRYB9FM86L/non/fQpVkRjhXUn0BpWAwm8SFLiSJrUAK+xT5qfNzjoT9PzoTxKrSlXjjjUD7zTL19MA1lasiyXoRgcNjkAnHJxwDUENy0Mey3BRAPuHB2n6nnv+tdPJHsI6WLW0nBMXlSY67XzipP7Tf/AJ5r+dcudRuPmKyJwcY2g/h1qxHdHarPeISecCI9PzpezQXOg/tN/wDnmv506LUWklRDGBuOOtZLpMXBSYKvcFM/rmrNsMXMfJPzik4RsBpyafDJK0hLBm64Ipv9mQ/3pPzH+FXKKy5mMp/2bD/ek/Mf4Uf2bD/ek/Mf4Vcoo5mBT/s2H+9J+Y/wp8VjFDKJFZyR6kVZoo5mAUUUVIBRRRQAUUUUAFFFFABRRRQAUUUUAFFFFABRRRQAUUUUAFFFFABRRRQBArYk9y5X9M/0qeq4/wBYv/XY/wDoJqxUw2KkFFFFUSIQCCCMg9QazpNB06WWaRrcbpvv89en+ArSopptbAZB8MaQetqDxjlj/nvU1vodhabvIh2buuGPP+c1o0U+eXcCr/Z8Ho3505LGBG3bM+zcirFFLmYHE6xEHuyPKDAAH7uccn2NQCztmjklawRkOM8kY7nA2561t3enai1z5luigYwcuozyf9k1ENO1g5yAPlAAEinn1+7/AJ9K6VJW3EZsNnbSx/u9OTaCerkc4z3HvVy1ia2zHHaJFGTnIkznt6egq2ulX+MtPLk9R8nH6VLFpt5GW3s8mem7aMflilzLuBHUtt/x8xf7wp/2G4/55/qKkgs50njZo8AMCTkUnJWA1aKKK5xhRRRQAUUUUAFFFFABRRRQAUUUUAFFFFABRRRQAUUUUAFFFFABRRRQAUUUUAFFFFABRRRQBAoy+f7spP6Y/rU9QMCEf/rop/DIqephsVIKKKKokbI+yJ3xnapOKoXEWrsw+z3Vsg35O+InK+nUYPX1q5cf8esv+4f5VVli1Ms3lXFuozxujJ4/OpZrDbp8yu0Gv73231kFJOwG3YkDPGfm54pvkeIc/wDH9Y45/wCXdvw/iq1HFqYb97cwMuOix4OfzNS7Lz/nqn5f/WpfeVf0IbePVBGftM8DvngxptGMe+e+asRi4Rt00i7AOabsvP8Anqn5f/WoK3KoxeVNoU5yP/1UxPXsRjWNPMrxC6jLpwy55HX/AANINa04uEF5EWJwAG5zjP8AKsiS/ZL1lbVdJVN+Chj+fr0znr26Uhu5mmEceqaTuJIC+Tljk8DGanmZp7GP9f8ADG02rWK43XMYz0yevGf5c1Kt9buoZZMg9wK59tSDTYi1fSNm77pTLdM46/j9Kkjup7pybTUtMkQMCdsO4hT06H9aOZh7Ff1/wxu/bIP7/wChpVuoWYKG5PA4qgrNtG6SHdjnEfGfyp8bgSKTJFgHn5Mf0p8xLpL+v+GLhu4ERGllSIuu4B2ANIL20JAF1CSegEgrKllsxcQodRjhn2r+6aRi2ef7rDP3+nI6VWiGnyOEj1iORiDGF86R8/KQRgyEE4J7e9XePcx5JdjpaKwbo6LeFbh9SYL90FLlgpP58nmoSugSYI1Vjsj/AIbs8Kvc4P5n86nmNFS9fuOkorK06/0mNPs1pfxzFSSR5vmMPX3rQS4ikYKr5J9jTTREoNdCWiiimQFFFFABRRRQAUUUUAFFFFABRRRQAUUUUAFFFFABRRRQAUUUUAFFFFADBhmdSAR3B+lUNZ0yXUdHurKK4KNKm1d/IH14zV5P9fJ+FSVCXMmn5mkJypyUo7qzPOV+Ht+CCV0tiDnky/ljNKPh/qCxui/2WAykZPmEgnHIJ9McfWvRaKy+q0+x6P8AbOL7nnmk+A7/AErUo76W8tykSuSI87jlSO4969DqO4/49pf9w/yp+5R1YfnWlOnGmrROXFYurimp1dWtBaKTev8AeH50b1/vD860OWwtFJvX+8PzoDKehB/GgVjlpdQKXbq/2baJGX7keQeccl+p+n5Ui6vANoeOHPXcDCB65+97/rVS5lIurjM/y+YQQJSCPmP/AE1GOh7CnJDdSKZF85gQNu2Q8+4/fYxWF2ekoqxa/ta1wSYoRjk/ND/8V9B+IqWHU7fkkQwjj5mMeCfTgmqItLsrllmBBJxvbnp/02/zz+MltHfQEDY5BIB3DdgdzzKfXt6UXYcsS+dTtAMm6th3+8tW7eXdLGRsIJGCFFZUb6iVRSip2JaIHH5SVqQf6+P/AHhTREkrGi1tA8hdoYy56sVGab9jtgQfs8WR32ip6K1scPM+5CLO2AwII8f7opPsdt/z7x9MfdHSp6KLIOZ9yFbO2Q5WCMH1CgU9Yo1OVRQfUCn0U7BzPuFFFFAgooooAKKKKACiiigAooooAKKKKACiiigAooooAKKKKACiiigAooooAjT/AF8n0FSVGn+vk+gqSpjt943uFFFFUIQgEEEZB6g1QbRrNp5ZsSb5Tlj5h56f4CtCik0mUpOOzMuPw/p8VwJ0SQSA5z5jYzjHTp0q39hi9W/OrNFHKh+0n3K32GL1b86VLONGyC+f97H8qsUUWQc8u5xcsjC8uEO7AdiMORkZJP8AEKb5m0MvmM5IOSHI74GMvU8lpO9zOwjwDKxzn3OOtLFa3EbMWhDKQfl8z6f4ViegnoUzMVO0OxUnO3zGzx2yW9zU9tl5Ch3ynbnCzMM9OeW/zmpYbGbzwZE+XPPz+1aEMEcCbYwQPck0A2V4bZGDb4p0z/enY/l83FX7cBZowOgIFMqSD/Xx/wC8KaM5bGtRRRWxwBRRRQAUUUUAFFFFABRRRQAUUUUAFFFFABRRRQAUUUUAFFFFABRRRQAUUUUAFFFFABRRRQAxR+9c+uKfTM4lx6gn+VPpRGwooopiCiiigAooooAKKKKAE2r6D8qNq/3R+VLRQFxNq/3R+VG1f7o/KlooC4m1f7o/Kjao7D8qWigAooooAKKKKACiigkAEnoKAM+fVo7eZo5InGDgEkYPv1qI67CoyYnwQSDuXnH41X1UKMSFivz45baD19WFZyyq3lqZBtU4IWRRnPp+8rndSVzoUI2NsazESR5TggbsEjkfnSLrkDHHlt0yfmXj681Qja0lMhaaSMjg7px357Maft0/DR/ax7j7RyMfjS9pLuHJHsaEOrJM21IXPTJyCB+Rqx9q/wBj9azY7myhGxbmHI4OZAT+NTJcQyNtSaNm64DAmnzy7i5F2NJG3oGxjNOqOD/UrUlbrYxe4UUUUxBRRRQAUUUUAFFFFABRRRQAUUUUAFFFFAEf/LwB/sH+dSVH/wAvI/3P61JUx6jYUUUVQgooooAKKKKACiiigAooooAKKKKACiiigAyPWjI9aoPpdtcgvIZtzgbtsrDt7GrP2ZPVqm8uxVl3Jsj1oyPWofsyerUfZk9WovLsFl3Jsj1pkhHlP/ummfZk9WpHgRY2ILcKe9Jt22BJX3M25ixds3l3LgnOUmIAOfTcP5UyF3j3Ys7vnrvlVv5ucU27v7iC7kRnhRckpvVAWHoMuMnPfAqt/a1wCpd4ApP92MZ/8i1g7XN1exeFzMT/AMeU4Huyf/FUC4lJP+hTjjuU5/8AHqgW/kKDde2Ubc5DRDj/AMfpft0mwt/aOn4A5/d8f+h0tA1LcUjyAl4Xix2cgk/kTUlV0e7kRHS5tWUjlhBkN9Pm/wAakT7UGBeWEjJyFixkdu/WmBoQf6lakpkJzEpp9dMdkc73CiiimIKKKKACiiigAooooAKKKKACiiigAooooAj/AOXn/gH9akpn/LX8Mfzp9TEbCiiiqEFFFFABRRRQAUUUh4U49KAFoqibW98xmF+dpJIXyxwKn8qXH+tqeZ9irLuT0VD5Uv8Az0o8qX/npRzPsFl3JqKh8qX/AJ6ULHIGBMnFF32Cy7kkf+qT/dFOpsf+qT/dFOprYT3CiiimIKRl3Iy+oxS0UAYeozqdyK+HD84JGP1X+dZ6TOMMZPut8uXOD+cnNa9zFc+a3lfxNy3HA9MVXCal3A4/3ea5Wnc6U1YWCa6PMsJYHoVCrgf99GpfOmAz9mYnjgMv+NQFNTJAAAyOT8vBo2ameAAMD7x28/rRqGhP50u4j7LJ7EsuP50efN/z6yf99L/jUkInZf3sYUj/AGgc1Lsb0/WizC6LNuSYEJGDjp6VLTIQREoNPrpjsjne4UUUUxBRRRQAUUUUAFFFFABRRRQAUUUUAFFFFAEbf61fr/Q1JTH/ANZH9f6Gn1Meo2FFFFUIKKKKACiiigApG+6fpS0jfdP0oAWiiigAooooAKKKKAGx/wCqT/dFOqmz3yHbHbxMqgAEyYz+lNM+pdrOH/v7/wDWqFKxXKXqKqQS3zA+fbxRntsk3Z/QVLun/uLT5g5SakJCgk9BzUW6f+4tNdpijZRcbTRzBymDehjdzHa/DE8MR3qWKZ0jw8zIeudm6r02kCaWR/NxvzxsHGTmmf2IAu1Z9ucZwg5rDklc2542IPOOP+Po56cw96kUyzDdHc8f9c/8af8A2Gu7Imxg5GEXg/lT4tGijTaxVx/ugfyo5Jdg54kflXGOLkZ46xinxpIpO+XeDjA24xUv9lQYxsXGMYx2pU0yKNw6qoYDAIp8khc8S1B/qVqSoJJo7OFfNY4zjgZqs+s2abdxlG7p+6bnnHp71qpJKzMuVt3RoUVnHXLJU3FpgvPPkv2/CrFpfQXys0BYhTg7kK84z3+tNST0TBxa6FmiiiqJCiiigAooooAKKKKACiiigAooooAjf/WxfU/yqSo3GZY/bNSVMd2N9AoooqhDXJWNiOoBNVH04vLK/wBruB5nYNwvTp+VW5f9U/8AumnVLSb1KTaWhQOmkpGv2y5GwAZD8tj1ph0knd/p92N3pJ0+laVFLkiHPIrpalVAMrtjuetOEOzJ3k8VNSN90/SnyoOZi0UUVRIUUUUAFFFFABRWbcam8Ny0SwhgCPmyf8KhGtMWwIB0Jycjp+FR7SJfs5GxRWR/bThSTAM8cc/4U+LVy4y8YQYz0Y9s+lL2kQ9nI1KRhuUr6jFUP7UjDEZ5HX5TUtvfLcShF7jP3SOPxp88XoHJJaiPFqBkYpcwBOcAxEn/ANCoMN+VTFzEGH3j5fB/XirlFPlQuYoiHUuN13B+ERH9aQW+pYYG9iJIG0+V0Oee/f8ASr9FHIg5jN+zarg/8TCH2/cdP1qzFHdLGBJMjv3YLgH8Ks0UciDmM3UW8qEPLEsxVlK5yACM9wDzVR9TCDcbc7M/ey3TOM4xWxcW0V1F5cyB0yDg+oqODT7W1i8qCIRpnO1aiUHfQtTVtTGj1uJ3XdAyxMpO/a5Ix2xtrYtJUkLbQRj1BH86l+zx+h/OnJGqE7R1ojCSeopSTWg+iiitTMKKKKACiiigAooooAKKKKACiiigBjnDL/nuKfUcv3l/D+YqSpW7G9goooqhDZf9U/8AumnU2X/VP/umnUuo+gUUUUxBSN90/SloIyMGgBNw9RRuX1H51SOkWbeblH/enL/vG55z68cmnQaXa2zExK4J4OXJ/nU3l2KtHuW9y+o/OjcvqPzqP7Onv+dH2dPf86Ly7BaJJuX1H50bh6io/s6e/wCdAt0BB5/Oi8gsjKnS0FxvldtwAJXYSOnrTR/ZseGHy45B8s8U3U1yYjsLfKRjaSOg9FNVlJUKHtvM+Xau4EZA9glczep0JGgkNnPMl0F3SpwrleR19fqfzqzhf7x/KsuOZI5Ny2hVgQMgP0/75qX7dJu/1B2884fP5bad0KzL+F/vH8qfCF81cE5+lZY1CQqpNscEdg5x/wCO1owsN6vzjBP6U4tXFJOxeoqlLeXKEhNPmkAJHDLzjHPJ7/0piX12w+bTJl68F1/xrfnRjyM0KKopeXTZ3afKuGxyy8jHXrVjzpP+eRo50HKyaiofOk/55GjzpP8AnkaOZBysmopqMWUEjB9KdVEhRRRQAUUUUAFFFFABRRRQAUUUUAFFFFABRRRQAx13EeuOP0qvfXclpYzTrFlkXIyeKtHqKWocW07OxUWk1dXODbx5fq+0aRI3uFGP/Q6jbx/qaiQ/2JIQpIGMfNjPI+bvgfnXoFFcv1ev/wA/Pw/4J0+3o/8APv8AH/gHK6b4nutRnSGS1SMSBgRzuGAfeuqpsv8Aqn/3TTq3o05wTU5cxlWnCdnCNgooorYxCiiigAooooAKKKKACiiigDD1WNCyKQ7EE4Ai3g9Op2Nj9M1mxxB5k3QglmAIMXGPr5Q/mPrWvfwh5yHknKseFWMMo9/un9apfYbUBV8uXaP+nZef/Ha5JLU6ovQmNsTwLCzKkknL9/8Avj6UhgkZQhsLIqOg8zp/45US2cDqIts+0/KAbZQFH/fGBU50q3IYMobOAMxp8oHYfLQA1rUsM/2fZFhgDL9v++KntYXikcC2ghVlOTE2SeD22ioE0a1V9xjD+oaNOf8Ax2tOAfvl4pxWom9BzajZo21rmIHdswW/i44+vI/OkGp2JcoLuIuM5UNzVgxRscmNSc55Hek8iInJjTP+7XQ+boYe6QNqlghIa7hBHGC4pq6vpz423sDZ6Ycc1a8qP/nmv5UeTF/zzT8qPeD3SBNSspJfKS6iaQ87A2T+VTefH/e/SlEMQ6RoPoKXy0/uL+VHvB7pnam8MkIWS7SCPcuSzFc9eMggg1UYacqBG1BVBfI/0lgc4xjOfTtWpdwTvGRbNCrcf61Nw79sj1pFtpAq7li3Ac4UAfhWUotvY0UkkZ8FrZzR5hu3kQHG5bhyP51fsbdLcOqOzAnJ3OzH06n6U8QSDoEH4D/CpIkZCd238BTjGz2FKV1uS0UUVsZBRRRQAUUUUAFFFFABRRRQAUUUUANbqv1/oadTW+8v1/oadSW7AKKKKYDZf9U/+6adTZf9U/8AumnUuo+gUUUUxBQSAMk4AopG+6fpQBWGo2rSmITKXBxt71L9oj9/yqTYv90flRsX+6PyqbSK90j+0R+/5UfaI/f8qWSCGVNkkSOuQdrKCMg5H61HEY1mkg3KzLhgOpCn1/H+YotIPdH/AGiP3/KlE6E4yafsX+6Pyo2qOij8qPeDQwbmeL7a2Zb5pNmSkRyvQdAP89ajjmWN1P8AxNWwxOGQkdMYPtz+dW5BKLt9lnCXQACV8gngd8c00tqWTiGzIxxlm/w+lc5uQiRcDJ1PB9V9vzohKREzb9TfZxscE5/DvUobVPnzFZDrtwz/AIZ4pS2pZGIrPHGfmb/CgBxv1G79xd8f9M+vGansbtbicqIriPb/AM9U2g8dqgZtQ3Lsitdu0biWbO7vjjpU9m12bgefHAqYPMZJOe3UfWqi9UTLY0aKKK6DAKKKKACiiigAooooAKKKKACiiigAooooAKKKKACiiigAooooAKKKKAGt95fr/Q06mt95fr/Q06kt2AUUUUwGy/6p/wDdNLkeopSARg9KpyaZbSuWcSZJycSEVLv0GrdS3keooyPUVUg0u2t2Zo/MBbrmQt/OpvsyerUXl2HaPclyPUUEgqee1RfZk9Wo8hFBILdPWi8uwWRLkeooyPUVUOmwGTfunznPEzY/LNTfZk9WovLsFo9yRnVVLMwAHJJPSqtvBatey3yQxCV1CecFG51HfPXHQf8AAR2xTJzEky2scyC6kBKK7DgeuOp6HgdcHp1qz9mT1ai8uwWXclyPUUZHqKi+zJ6tSi3QHOW/Oi8uwWXcypY7iS9d2vfLiIBCpIARwOxH+c05Ytsu/wDtCQj+6ZVI6fSql5bWhumeRLsyADOyDcOAO5BzVU2NgSw23556/ZRxx2+X/Jrnub2NMQ/vARqUvJBC+auPp0pXi3O4/tGVWYkACVeOeg4qjbx6fEyA215IQFCmW0zt/Ice9Tk6es7N9gkMiljvFp1IOSQcc5Iz70XAlaEMf+QnMOc8TL2GMdP84qzYwNFKD9rlnBHR3DfjwKq28GnzhmWyCYJB8y2CE569etXrWC3hmXyo1Q4x8qAcelVHdEy2L1FFFdBgFFFFABRRRQAUUUUAFFFFABRRRQAUUUUAFFFFABRRRQAUUUUAFFFFACHqPrS0jdPxFLS6gFFFFMAooooAKKKKACkb7p+lLRQBWW9jd3QLICvXchA/AnrT/tKejVNRU2fcq67FSR43dJAn7xDwxHboR+RNS/aU9Gqaiiz7hddiH7Sno1AuFJAw35VNRRZ9wuuxj3K3rzO0dwFUgEDzguDj02nFQNHqZZf9LUDPI88DjH+7Vy60WG6d2MrIW9EU44x3BqA+GrUsGEhBBzxFHycY/u+n8qxcJGqlEIIr3ayzXhIIGHWVSwOf90D2qQQTZJ/tCYj5uN6d/wAO1MXw7CoKrcOqkKCoijAO3p/DTU8M2yMpEp4OceVGM85wcLRyy7fiHNHuS+RMFUf2hP8AKCCd6ZPueKms4pI5vnupJhjGHZTj8hSf2JZZY/Z4MtyT5Q5qxDZRQSmRFUM3LELgn61SjK4nJWLNFFFbGIUUUUAFFFFABRRRQAUUUUAFFFFABRRRQAUUUUAFFFFABRRRQAUUUUANf7v4j+dOpr9PxH86dS6gFFFFMBCcAk9qrSXUyOVWyncA/eUrg/masP8A6tvoarPdzpIyrYzuB0YFMH82rOcrPew0OhuZpC4e0kiCnALEHd78ZqXzG/55mq/2yf8A58J+nqn/AMVSfbbj/oHXH5p/8VUc395/cO3kWfMb/nmaN7HjYR71VN7dhiBp0pHPO9fXjv3qzFI8ijfCUznIPNCld2v+AWMSeAmeXGrRIS+NpZ/l56ffHNEUcZdfM1aJ/m5CSOM+g++a0zplsZWkLTbm6/vmx1zwM8U+KxghOUaTONvzSFuPxNZexlfZFcyKix2byBFuiXxwouHz09M1YihSJcK7Ef7Ts386seUn94/nR5Sf3j+dP2UuyDmIsD+8P1pyAbx8w60/yk/vH86URoCCCfzpqlK4rklFFFdRAUUUUAFFFFABRRRQAUUUUAFFFFABRRRQAUUUUAFFFFABRRRQAUUUUAFFFFABRRRQAUUUUABGQQe9V7pJ3tZFhb94R8pHB/OrFFRUgpxcX1GnZ3ORbTvFWTtv48dtyE/n+8H9KadN8WExf8TBOD8+0EbhkernHf8AOuwory/7Hp/zy+9f5G31h9kYdtbamk6tM8nlgHdukyOnpmtKTUbKFykl1EjDszgGrD/6tvoaXaufuj8q6sNhFhouFOTd9ddf8iJz59WiCK+tZ2IinSQgZ+U5qXzU9f0p21f7o/Kjav8AdH5V0+/3RGg3zU9f0oMikEA84p21f7o/KkKjBwozjtR74aGZJGd7j7FeEbjys+Acnr96nW1qpZbh7aeKUArh5S2B+ZFJLF+9Zvsl63PVZ8D8t1FvApmLm3u0KdDJMSD17ZP6+orltr/X+RoW9v8AsNRt/wBhqXb/ALDf5/Cjb/sN/n8Kdv6/pCE2/wCw1OVfnHyt1pNv+w3+fwpVX5h8jdaaWv8AX+QE9FFFdhmFFFFABRRRQAUUUUAFFFFABRRRQAUUUUAFFFFABRRRQAUUUUAFFFFABRRRQAUUUUAFFFFABRRRQAUUUUABGRg1VewheQuXmBJzxMwH5Zq1RUyipbod7FM6ZASSXuORj/Xv/jTBo9oAQDPycn9+/wDjV+ip9lDsHMyJbdFUKC2Bxyc05YwpyCafRTVOK6BdhRRRViCiiigAophZwThMj1z1oDvkfuzj1zQA+io978/uj+YpBJKWAMBAz13CgCWiiigAooooAKKKKACiiigAooooAKKKKACiiigAooooAKKKKACiiigD/9k=;strokeColor=none;strokeWidth=102;spacingTop=-3;spacingBottom=-3;spacingLeft=-3;spacingRight=-3;rounded=0;html=1;whiteSpace=wrap;" parent="1" vertex="1">
          <mxGeometry width="6908" height="15676" as="geometry" />
        </mxCell>
      </root>
    </mxGraphModel>
  </diagram>
</mxfile>
